<svg width="719" height="310" viewBox="0 0 719 310" fill="none" xmlns="http://www.w3.org/2000/svg">
<path d="M718.37 169.754H628.75V308.144H718.37V169.754Z" fill="#222222"/>
<path d="M489.42 165.714C491.44 230.084 532.3 300.884 617.23 307.544V162.334C617.23 147.174 616.63 38.0736 616.58 10.2036C526.3 22.9136 487.41 99.0035 489.42 165.724V165.714Z" fill="#222222"/>
<path d="M437.6 308.524L332.81 145.424L234.18 308.524H437.6Z" fill="#222222"/>
<path d="M430.89 61.2635C399.47 12.4435 333.85 -21.6465 262.6 16.1535L402.41 233.474C466.29 184.104 462.41 110.144 430.89 61.2635Z" fill="#222222"/>
<path d="M103.16 87.4435L107.2 87.5535L204.46 88.3135L205.11 4.91351L1.42 5.13351L0 198.834L103.15 197.904V87.4435H103.16Z" fill="#222222"/>
<path d="M105.72 309.994C133.18 310.184 159.64 299.694 179.5 280.724C199.36 261.764 211.07 235.814 212.15 208.374C213.23 180.934 203.59 154.154 185.28 133.694C166.96 113.234 141.41 100.694 114.02 98.7335V208.644L0.0703125 209.684C1.52031 236.744 13.2803 262.214 32.9303 280.874C52.5803 299.534 78.6303 309.954 105.73 309.994H105.72Z" fill="#222222"/>
</svg>
